<svg width="150" height="48" viewBox="0 0 150 48" fill="none" xmlns="http://www.w3.org/2000/svg">
<path d="M21.4176 32.8736V14.2727H31.8153V47H21.8864V40.9062H21.5455C20.821 42.9091 19.5852 44.5 17.8381 45.679C16.1051 46.8437 14.0099 47.4261 11.5526 47.4261C9.32244 47.4261 7.36222 46.9148 5.67188 45.892C3.98153 44.8693 2.66761 43.4418 1.73011 41.6094C0.792614 39.7628 0.316762 37.6037 0.302557 35.1321V14.2727H10.7216V33.0866C10.7358 34.8622 11.2045 36.2614 12.1278 37.2841C13.0511 38.3068 14.3082 38.8182 15.8991 38.8182C16.9361 38.8182 17.8665 38.5909 18.6903 38.1364C19.5284 37.6676 20.1889 36.9929 20.6719 36.1122C21.169 35.2173 21.4176 34.1378 21.4176 32.8736ZM12.5114 10.1179L16.8153 0.50852H26.0412L19.6065 10.1179H12.5114ZM39.0471 47V14.2727H49.4661V47H39.0471ZM44.2673 10.4588C42.8042 10.4588 41.5471 9.97585 40.496 9.00994C39.4448 8.02983 38.9192 6.85085 38.9192 5.47301C38.9192 4.10937 39.4448 2.9446 40.496 1.97869C41.5471 0.998578 42.8042 0.50852 44.2673 0.50852C45.7445 0.50852 47.0016 0.998578 48.0386 1.97869C49.0897 2.9446 49.6153 4.10937 49.6153 5.47301C49.6153 6.85085 49.0897 8.02983 48.0386 9.00994C47.0016 9.97585 45.7445 10.4588 44.2673 10.4588ZM56.6979 47V14.2727H66.8186V20.2386H67.1595C67.7561 18.0795 68.7291 16.4744 70.0786 15.4233C71.428 14.358 72.9976 13.8253 74.7874 13.8253C75.2703 13.8253 75.7675 13.8608 76.2788 13.9318C76.7902 13.9886 77.2661 14.081 77.7064 14.2088V23.2642C77.2092 23.0937 76.5558 22.9588 75.7462 22.8594C74.9507 22.7599 74.2405 22.7102 73.6155 22.7102C72.3797 22.7102 71.2646 22.9872 70.2703 23.5412C69.2902 24.081 68.5161 24.8409 67.9479 25.821C67.3939 26.7869 67.1169 27.9233 67.1169 29.2301V47H56.6979ZM96.1509 47.6179C92.7276 47.6179 89.773 46.9432 87.2872 45.5938C84.8156 44.2301 82.9122 42.2912 81.577 39.777C80.256 37.2486 79.5955 34.2443 79.5955 30.7642C79.5955 27.3835 80.2631 24.429 81.5983 21.9006C82.9335 19.358 84.8156 17.3835 87.2446 15.9773C89.6736 14.5568 92.5358 13.8466 95.8313 13.8466C98.1608 13.8466 100.291 14.2088 102.223 14.9332C104.155 15.6577 105.824 16.7301 107.23 18.1506C108.637 19.571 109.73 21.3253 110.512 23.4134C111.293 25.4872 111.684 27.8665 111.684 30.5511V33.1506H83.2389V27.0994H101.989C101.975 25.9915 101.712 25.0043 101.201 24.1378C100.689 23.2713 99.9861 22.5966 99.0912 22.1136C98.2105 21.6165 97.1949 21.3679 96.0443 21.3679C94.8795 21.3679 93.8355 21.6307 92.9122 22.1562C91.9889 22.6676 91.2574 23.3707 90.7176 24.2656C90.1778 25.1463 89.8938 26.1477 89.8653 27.2699V33.4276C89.8653 34.7628 90.1281 35.9347 90.6537 36.9432C91.1793 37.9375 91.925 38.7116 92.8909 39.2656C93.8568 39.8196 95.0074 40.0966 96.3426 40.0966C97.2659 40.0966 98.104 39.9687 98.8568 39.7131C99.6097 39.4574 100.256 39.081 100.796 38.5838C101.336 38.0866 101.74 37.4759 102.01 36.7514L111.577 37.0284C111.179 39.1733 110.306 41.0412 108.956 42.6321C107.621 44.2088 105.867 45.4375 103.693 46.3182C101.52 47.1847 99.006 47.6179 96.1509 47.6179ZM128.024 28.3352V47H117.605V14.2727H127.513V20.2812H127.875C128.599 18.2784 129.835 16.7088 131.582 15.5724C133.329 14.4219 135.41 13.8466 137.825 13.8466C140.126 13.8466 142.122 14.3651 143.812 15.402C145.517 16.4247 146.838 17.8594 147.775 19.706C148.727 21.5384 149.196 23.6832 149.182 26.1406V47H138.763V28.1861C138.777 26.3679 138.315 24.9474 137.378 23.9247C136.454 22.902 135.169 22.3906 133.521 22.3906C132.427 22.3906 131.461 22.6321 130.623 23.1151C129.8 23.5838 129.16 24.2585 128.706 25.1392C128.265 26.0199 128.038 27.0852 128.024 28.3352Z" fill="url(#paint0_linear_2_242)"/>
<defs>
<linearGradient id="paint0_linear_2_242" x1="-26.0923" y1="17.5" x2="155" y2="17.5" gradientUnits="userSpaceOnUse">
<stop stop-color="#8338EC"/>
<stop offset="1" stop-color="#3A86FF"/>
</linearGradient>
</defs>
</svg>
